<svg xmlns="http://www.w3.org/2000/svg" viewBox="0 0 876.42 316.95"><defs><style>.cls-1{fill:#808082;}.cls-2{fill:#ff5300;}</style></defs><g id="Capa_2" data-name="Capa 2"><g id="Capa_1-2" data-name="Capa 1"><path class="cls-1" d="M302.48,86.53a76.36,76.36,0,0,0-20,52.1V255.27h27.72V138.63c0-25.63,18.84-46.49,42-46.49h6.15V64.41h-6.15C333.33,64.41,315.68,72.27,302.48,86.53Z"/><polygon class="cls-1" points="468.25 206.71 415.19 64.42 385.64 64.42 456.76 255.25 479.76 255.25 550.84 64.42 521.24 64.42 468.25 206.71"/><path class="cls-1" d="M670.27,212.14c-7.53,10.08-20.32,15.4-37,15.4-25.68,0-47.68-23.33-52.32-55.47l-.07-.36s-.58-3.25,1.19-5.14a9.93,9.93,0,0,1,1.62-.35h42.18c20.37,0,37.78-5.21,50.34-15.08,12.12-9.53,19.07-23.11,19.07-37.27,0-13.59-6.13-26.11-17.25-35.26-11.45-9.42-26.59-14.2-45-14.2a69.63,69.63,0,0,0-32.19,8,81.6,81.6,0,0,0-25.68,21c-14.71,17.88-22.81,41.49-22.81,66.49a105.35,105.35,0,0,0,2.11,22A101.53,101.53,0,0,0,575,226.31h0c15.29,18.67,36,29,58.29,29,32.58,0,50.18-14.43,59.21-26.54l8.28-11.12L678.56,201Zm-2.72-98.27c0,5.76-2.93,11.11-8.47,15.47-7.62,6-19.11,9.15-33.2,9.15h-42c-.19,0-.55,0-1.1,0,7.25-27.46,27.52-46.31,50.39-46.35C656.8,92.18,667.55,103.43,667.55,113.87Z"/><path class="cls-1" d="M847.37,64.41,793.09,209.83,738.89,64.41h-29L769,222.78a136.8,136.8,0,0,1,4.34,15.09c2.47,11,2.26,18.08,1.3,20.89l-.77,2.54c-6,17.08-21,28.56-37.43,28.56H722.91V317h13.54a64,64,0,0,0,39-13.3,70.62,70.62,0,0,0,23.85-33.13L876.42,64.41Z"/><path class="cls-2" d="M255,127.52C255,57.2,197.83,0,127.53,0A127.67,127.67,0,0,0,0,127.52C0,197.83,57.21,255,127.53,255A127.65,127.65,0,0,0,255,127.52ZM28,127.52a99.55,99.55,0,1,1,99.56,99.54A99.67,99.67,0,0,1,28,127.52Z"/><path class="cls-2" d="M241.59,271.61c-.59.94-14.73,23.05-43.21,22.07-13.67-.46-26.39-5.59-39.85-11-16.39-6.61-33.33-13.45-54.71-13.55h0c-1.35,0-19.84.2-35.14,10.77l-2.77,1.92,7,8.34L75.05,289c.11-.06,11.91-6.13,23.36-5.86,8.72.23,17.67,2.75,26.62,7.5,3.76,2,7.54,4.14,11.19,6.21,8.58,4.87,17.46,9.9,27,13.58a101.37,101.37,0,0,0,11.6,3.74,59.63,59.63,0,0,0,13.36,2c.52,0,1.05,0,1.57,0,21.79,0,49-11.44,62-37.46l1.08-2.15-9.43-8Z"/></g></g></svg>