<?xml version="1.0" encoding="UTF-8"?>
<svg width="12px" height="14px" viewBox="0 0 12 14" version="1.1" xmlns="http://www.w3.org/2000/svg" xmlns:xlink="http://www.w3.org/1999/xlink">
    <title>lupa</title>
    <g id="Page-1" stroke="none" stroke-width="1" fill="none" fill-rule="evenodd">
        <g id="2.6" transform="translate(-313.000000, -78.000000)" fill="#C4C4C4" fill-rule="nonzero">
            <g id="Group" transform="translate(313.000000, 78.000000)">
                <path d="M5.13333333,0 C7.96839505,0 10.2666667,2.29827162 10.2666667,5.13333333 C10.2666667,6.76048777 9.50960045,8.21081991 8.32849303,9.15130475 L11.3361153,12.9114202 L10.5552465,13.5361153 L7.48502819,9.69750462 C6.78048308,10.0612574 5.98089616,10.2666667 5.13333333,10.2666667 C2.29827162,10.2666667 0,7.96839505 0,5.13333333 C0,2.29827162 2.29827162,0 5.13333333,0 Z M5.13333333,1 C2.85055637,1 1,2.85055637 1,5.13333333 C1,7.4161103 2.85055637,9.26666667 5.13333333,9.26666667 C7.4161103,9.26666667 9.26666667,7.4161103 9.26666667,5.13333333 C9.26666667,2.85055637 7.4161103,1 5.13333333,1 Z" id="lupa"></path>
            </g>
        </g>
    </g>
</svg>